<svg xmlns="http://www.w3.org/2000/svg" width="104.696" height="61.973" viewBox="0 0 104.696 61.973">
  <g id="Groupe_1" data-name="Groupe 1" transform="translate(-299.136 -337.294)">
    <path id="Tracé_1" data-name="Tracé 1" d="M313.931,544.257l-.155,7.212s.31,4.939-1.951,7.043-6.694,2.027-6.694,2.027-3.738.024-4.574,0-.86-.951-.86-.951,0-2.811.141-6.9.022-6.733,0-7.708-.349-8.289-.349-8.289c-.021-.472.852-.457.852-.457s.62,0,3.746-.155,4.984,0,7.306,1.92S313.931,544.257,313.931,544.257Zm-5.263,6.736c.341-3.932-.186-7.293-.526-7.7a2.457,2.457,0,0,0-2.786-1.053l.247,8.5.155,3.776S308.327,554.924,308.668,550.993Z" transform="translate(-0.288 -162.413)" fill="#cda595"/>
    <path id="Tracé_2" data-name="Tracé 2" d="M400.548,534.991a.893.893,0,0,1,.9,1.067c-.061,1.424-.155,8.3-.155,8.3l.032,6.966s.092,3.716-1.3,6.068-4.488,2.878-5.386,2.847-4.551-.247-5.851-3.22a16.8,16.8,0,0,1-.929-7.026l.155-9.072s-.13-3.374-.2-4.147a8.339,8.339,0,0,1-.013-1.324.664.664,0,0,1,.2-.435,1.024,1.024,0,0,1,.794-.253s3.467.158,4.116.233.559,1.283.559,1.283l-.186,6.779s0,6.811.031,7.709.123,2.724,1.114,2.724,1.114-.743,1.114-2.661V535.809c0-.092-.077-1.053.712-1.051.9,0,1.7.25,2.631.233S400.548,534.991,400.548,534.991Z" transform="translate(-72.435 -161.365)" fill="#cda595"/>
    <path id="Tracé_3" data-name="Tracé 3" d="M510.091,534.6c4.859,3.869,4.52,4.612,4.52,4.612s-2.538,3.158-2.632,3.312-.527.651-.527.651-.835-1.239-1.423-1.982-1.646-2.314-2.6-1.361c-1.581,1.579.593,3.629.593,3.629s4.3,4.791,4.852,6.338,1.888,4.675-1.424,7.554a7.908,7.908,0,0,1-9.473.4,26.184,26.184,0,0,1-3.033-3.281s-.712-.867-.433-1.022,2.229-2.136,2.229-2.136,1.084-1.423,1.269-1.547.588-.928,1.083-.371,1.98,2.322,1.98,2.322.929,1.021,1.7.216-1.116-2.822-1.116-2.822l-4.178-4.545s-4.086-4.873-.279-9.752A6.533,6.533,0,0,1,510.091,534.6Z" transform="translate(-162.877 -159.877)" fill="#cda595"/>
    <path id="Tracé_4" data-name="Tracé 4" d="M609.957,560.943s.213.308-.56.278-3.869-.092-5.944-.123-8.265.293-8.42.263-4.554,0-4.554,0-.493.06-.43-.342.278-3.684.247-4.24.124-7.089.248-8.73-.065-7.275-.065-7.275l-.152-3.373s-.046-.51.152-.5c0,0,2.48.031,2.666,0s2.073,0,2.073,0,1.363-.031,1.3.712-.247,5.045-.247,5.045-.155,5.327-.186,6.61.278,5.617.278,5.617.279.341.557.31,3.685.154,4.118.154,2.631.063,4.24,0,3.747-.154,3.747-.154.99-.063.929.309-.17,2.632-.17,3.066S609.957,560.943,609.957,560.943Z" transform="translate(-237.728 -163.11)" fill="#cda595"/>
    <path id="Tracé_5" data-name="Tracé 5" d="M645.362,536.679c.5.01.349,1.128.349,1.128s-.039,2.136,0,2.6a1.385,1.385,0,0,1-.127.743,11.113,11.113,0,0,1-1.424.155c-.526,0-1.95-.062-2.075-.062s-3.157.124-3.157.124.031.835,0,1.145.434.494.434.494l2.506.032s2.693-.155,3.281-.155.4.588.4.588,0,1.455.032,2.074a.907.907,0,0,1-.31.836h-.836s-3.869-.031-4.488-.061a2.082,2.082,0,0,0-1.022.186s-.031.619,0,1.331.62.619.62.619l1.609-.092s2.632-.063,3.653-.063.929.806.867.9,0,2.724,0,3.281a1.044,1.044,0,0,1-.31.806s-4.7-.186-5.014-.186h-4.861c-1.826,0-1.571-.867-1.571-.867v-.959s.085-2.755.019-4.551.066-7.708,0-8.791.619-1.146.619-1.146l2.973-.106C640.5,536.573,645.362,536.679,645.362,536.679Z" transform="translate(-273.571 -162.897)" fill="#cda595"/>
    <path id="Tracé_6" data-name="Tracé 6" d="M725.756,559.661v1.005s-.063.381-.714.345-4.8.1-6.036.073-4.055.138-4.055.138-3.126.046-3.684.109-.682.216-.651-.465.279-3.837.341-5.57.186-9.163.186-9.163.094-4.179.063-5.14-.124-3.653-.124-3.653a.567.567,0,0,1,.619-.711s7,0,7.213.048,2.971.106,3.374.138,2.167,0,2.167,0l.836.012a7.469,7.469,0,0,1,0,1.318c-.063.8.026,2.6.026,2.6l.129,1.438a.893.893,0,0,1-.806.5c-.619.031-4.21-.094-4.4,0s-2.011-.082-2.321.006-.743.087-.743.49-.031,2.307-.092,2.586-.026.929.359.929,3.819.061,4.593,0,2.879.027,2.879.027a.673.673,0,0,1,.372.623c.031.5.155,4.334.155,4.334s-.124.619-.589.588-3.839,0-3.839,0-2.088.076-2.367.076-1.47.139-1.47.139-.061,1.363-.061,1.61-.309.929.434.992,2.815,0,2.815,0l3.59.027h.775s1.052-.12,1.021.9S725.756,559.661,725.756,559.661Z" transform="translate(-336.256 -162.896)" fill="#cda595"/>
    <path id="Tracé_7" data-name="Tracé 7" d="M815.1,544.334c.123,1.331.216,5.014.216,5.014a6.041,6.041,0,0,1-1.981,4.3,8.412,8.412,0,0,1-4.489,1.7s-.046,2.29-.077,2.6a19.659,19.659,0,0,0,.015,2.322c.063.4.124.961.124.961a8.73,8.73,0,0,0-1.61,0c-.5.092-2.043.046-2.569.077s-1.92.155-1.92.155.031-.758.063-2.305-.1-8.079,0-9.287a76.192,76.192,0,0,0-.036-8.73,21.769,21.769,0,0,1-.147-3.529s-.186-.726.959-.726h4.674s3.4.106,4.873,2.242A10.251,10.251,0,0,1,815.1,544.334Zm-4.3,4.644a22.619,22.619,0,0,0,0-4.366,2.343,2.343,0,0,0-2.384-2.012s-.186.31,0,1.734,0,6.285,0,6.285C810.606,550.557,810.792,548.978,810.792,548.978Z" transform="translate(-411.48 -163.109)" fill="#cda595"/>
    <path id="Tracé_8" data-name="Tracé 8" d="M795.567,433.658a1.286,1.286,0,0,1-1.347,1.37c-1.068-.047-3.982-.117-5.376-.233s-3.108-.07-4.756-.07-3.692.186-3.762.186-.3-.07-.232-.9.186-3.389.186-3.389.256-5.873.232-6.43-.024-3.3-.024-3.576.094-1.532.094-1.532a.487.487,0,0,1,.549-.487h5.217s.155-.078.093.619-.078,1.037-.078,1.1.092,1.268.092,1.268h1.356c.9,0,2.61.047,3.058,0s3.034-.02,3.157.021c0,0,1.169.034,1.192.916s.209,3.227.209,3.227.022,1.045-1.3,1.022-5.495.048-6.1,0a1.485,1.485,0,0,0-.758.05s-.42.019-.42.413a18.967,18.967,0,0,0,.094,2.019c.07.349.348.371.835.4s1.177-.037,1.712-.013,3.266-.173,3.5-.149,2.322.116,2.344.765S795.52,433.239,795.567,433.658Z" transform="translate(-393.025 -66.433)" fill="#cda595"/>
    <path id="Tracé_9" data-name="Tracé 9" d="M719.36,376.2a32.575,32.575,0,0,1-.116,3.537c-.046.441,0,1.671,0,1.671a9.214,9.214,0,0,1-1.835.162c-1.276.024-5.59.07-6.193,0s-7.754-.07-8.59-.092-3.83.13-3.83.13a.613.613,0,0,0-.627.659c0,.673-.022,5.5-.022,5.5s-.14,4.944-.117,5.13-.116,4.224-.092,4.6,0,2.021,0,2.021.116.441-.511.441h-4.133s-1.23.3-1.23-.349.116-6.848.116-6.848-.07-7.267-.07-7.452-.024-2.484-.024-2.484.024-.767.024-.975-.116-.465-.649-.465-2.788.186-2.927.186h-1.509s-.279-.022-.279-.859.094-2.438.116-2.693,0-1.184,0-1.184-.071-.405.163-.394a21.134,21.134,0,0,0,2.2,0c.976-.07,3.624-.21,6.341-.117s7.382-.092,8.241-.138,3.3.07,4.83,0,5.566-.256,6.471-.256c0,0,2.182.116,2.484.116A10.8,10.8,0,0,1,719.36,376.2Z" transform="translate(-316.751 -31.572)" fill="#cda595"/>
    <path id="Tracé_10" data-name="Tracé 10" d="M607.53,377.573a21.571,21.571,0,0,1-.186,2.948c0,.3.046,1.578.046,1.578a.465.465,0,0,1-.441.441c-.417.024-3.783-.092-3.992,0s-4.323-.063-4.393,0-.116,4.037-.116,4.037.07.371.325.371,7.41-.116,7.41-.116a3.684,3.684,0,0,1,.813.116,8.831,8.831,0,0,1,.186.882s.023,3-.024,3.274-.162.719-.186.835a.934.934,0,0,1-.743.372h-7.2s-.417.046-.417.673v2.206s4.485-.046,4.6,0,2.159,0,2.159,0,1.486-.116,1.6-.116.371.07.395.952.092,3.691.092,3.691-.162.975-1,.951-6.574-.068-7.456-.092a49.964,49.964,0,0,0-6.314,0s-.233-.022-.255-.418.07-7.522.116-9.611-.077-12.538-.12-12.931.1-.61.631-.627l6.709-.216h5.669l.929.107A4.653,4.653,0,0,1,607.53,377.573Z" transform="translate(-239.674 -32.265)" fill="#cda595"/>
    <path id="Tracé_11" data-name="Tracé 11" d="M615.777,342.129c.021.5-.833.291-.833.291s-3.583-1.083-3.825-1.145a2.655,2.655,0,0,0-.82,0c-.062.021-3.181.931-3.269.958-.443.136-.542-.188-.606-.541s.023-1.98,0-2.333.164-.4.164-.4l.794-.354s2.833-1.1,3.332-1.25a2.194,2.194,0,0,1,1.041,0s2.959,1.085,3.719,1.386a.273.273,0,0,1,.173.254v.464S615.756,341.629,615.777,342.129Z" transform="translate(-251.094 0)" fill="#cda595"/>
    <path id="Tracé_12" data-name="Tracé 12" d="M522.437,376.9c.9.017.743,1.549.743,1.549l-.144,3.336a.651.651,0,0,1-.191.433l-.125.125a.651.651,0,0,1-.46.19h-.968s-3.034-.092-4.24,0c-.8.065-.743.713-.743.713v3.869a4.559,4.559,0,0,0,.477-.031c.26-.032,2.155.031,2.155.031s2.893.031,3.265.031.371.124.371.124,0,4.333.031,4.8-.711.526-.711.526-4.412.031-5.111.061a.534.534,0,0,0-.571.651l-.061,1.083s-.093,5.573-.124,5.975-.5.371-.5.371H513.4c-.651,0-1.387.039-1.96.077s-.986.078-.986.078v-.961s.222-6.129.222-7.677-.124-5.665-.186-7.4-.031-6.9,0-7.306c.022-.286.4-.556.622-.688a.578.578,0,0,1,.31-.083c.49.008,1.979.033,2.442.059.557.031,2.044-.061,2.044-.061Z" transform="translate(-172.686 -32.265)" fill="#cda595"/>
    <path id="Tracé_13" data-name="Tracé 13" d="M401.546,383.058c0,2.885-.155,6.926-.155,6.926l-.092,4.1-.031,2.95s0,.514-.31.609a7.62,7.62,0,0,1-.9.321c-.155,0-4.26-.018-4.366,0a1.14,1.14,0,0,1-.26,0l.122-8.667.031-1.156s.094-.224-.557-.288-1.576-.1-1.576-.1v1.33s.124.9-.433.9H390.6s-1.623-.042-1.871-.074-.9-.149-.9-.149-.031-4.875,0-6.221a15,15,0,0,1,1.8-7.182,5.261,5.261,0,0,1,4.827-2.736S401.2,373.248,401.546,383.058Zm-5.911-1.828s.092-1.571-1.177-1.634-1.176,2.095-1.176,2.095v1.457h2.353Z" transform="translate(-72.473 -29.682)" fill="#cda595"/>
    <path id="Tracé_14" data-name="Tracé 14" d="M321.018,395.365v3.794a.243.243,0,0,1-.093.191,6.554,6.554,0,0,0-.6.514c-.113.135-.5.135-.5.135s-1.655,0-5.464-.067-14.233.225-14.706.225a.884.884,0,0,1-.376-.066.237.237,0,0,1-.129-.245l.156-1.708c.191-2.638.169-6.83.169-6.83s-.18-9.378-.225-10.482c-.043-1.033-.1-4.006-.112-4.332a.238.238,0,0,1,.008-.069c.182-.661,1.38-.445,1.513-.418l.025,0c.24.019,3.653.292,4.336.292.607,0,.495.991.476,1.133a.266.266,0,0,0,0,.034l.022,6.311s.158,9.265.2,9.94c.039.585.382.545.473.524a.239.239,0,0,1,.055-.006l2.118.022s5.251-.022,6.131-.022,4.292-.022,5.4-.022A1.138,1.138,0,0,1,321.018,395.365Z" transform="translate(0 -31.592)" fill="#cda595"/>
  </g>
</svg>
