<svg xmlns="http://www.w3.org/2000/svg" width="136.473" height="198.223" viewBox="0 0 136.473 198.223">
  <g id="Groupe_624" data-name="Groupe 624" transform="translate(-1242.718 -1722.348)">
    <g id="_012-cocktails-28" data-name="012-cocktails-28" transform="matrix(0.966, 0.259, -0.259, 0.966, 1283.805, 1721.138)">
      <path id="Tracé_171" data-name="Tracé 171" d="M47.281,53.682H41.559c-9.9,0-10.394-9.635-10.417-10.878V12.55C31.142,2.671,37.569,0,37.569,0H14.675S21.1,2.672,21.1,12.55V42.716c0,.737-.219,10.966-10.418,10.966H4.964a4.964,4.964,0,1,0,0,9.927H47.281a4.964,4.964,0,0,0,0-9.927Z" transform="translate(0 95.139)" fill="#b9d8f4"/>
      <path id="Tracé_172" data-name="Tracé 172" d="M15,59.4h5.721c10.2,0,10.416-10.229,10.418-10.966V42.811a.062.062,0,0,0,0-.007V18.262c0-9.87,1.285-12.54,1.285-12.54A10.9,10.9,0,0,1,37.57,0H14.675S21.1,2.672,21.1,12.55V42.716c0,.737-.219,10.966-10.418,10.966H4.964a4.964,4.964,0,1,0,0,9.927H10.1A4.978,4.978,0,0,1,15,59.4Z" transform="translate(0 95.139)" fill="#96c8ef"/>
      <path id="Tracé_173" data-name="Tracé 173" d="M22.894,0H0S6.427,2.672,6.427,12.55v.079a31.238,31.238,0,0,0,5.02.406,31.269,31.269,0,0,0,5.187-.434c.348-5.281,1.118-6.879,1.118-6.879A10.9,10.9,0,0,1,22.894,0Z" transform="translate(14.675 95.138)" fill="#78b9eb"/>
      <path id="Tracé_174" data-name="Tracé 174" d="M38.7,0H4.19A4.19,4.19,0,0,0,0,4.19V77.011a21.446,21.446,0,1,0,42.892,0V4.19A4.189,4.189,0,0,0,38.7,0Z" transform="translate(4.676 0)" fill="#d1e7f8"/>
      <path id="Tracé_175" data-name="Tracé 175" d="M18.785,77.011V4.19A4.19,4.19,0,0,1,22.975,0H4.19A4.19,4.19,0,0,0,0,4.19V77.011A21.438,21.438,0,0,0,30.839,96.286,21.469,21.469,0,0,1,18.785,77.011Z" transform="translate(4.676 0)" fill="#b9d8f4"/>
      <path id="Tracé_176" data-name="Tracé 176" d="M23.592,0H3.106A3.106,3.106,0,0,0,0,3.106V59.361a13.349,13.349,0,1,0,26.7,0V3.106A3.1,3.1,0,0,0,23.592,0Z" transform="translate(12.773 17.651)" fill="#fff5cc"/>
      <path id="Tracé_177" data-name="Tracé 177" d="M10.688,59.361V0H3.106A3.106,3.106,0,0,0,0,3.106V59.361a13.339,13.339,0,0,0,15.255,13.21A21.331,21.331,0,0,1,10.688,59.361Z" transform="translate(12.773 17.651)" fill="#ffeb99"/>
      <g id="Groupe_16" data-name="Groupe 16" transform="translate(26.085 23.588)">
        <path id="Tracé_178" data-name="Tracé 178" d="M2.429,4.858A2.43,2.43,0,0,1,.713.709a2.435,2.435,0,0,1,3.436,0,2.431,2.431,0,0,1-1.72,4.149Z" transform="translate(0 23.211)" fill="#fff"/>
        <path id="Tracé_179" data-name="Tracé 179" d="M2.429,4.858A2.43,2.43,0,0,1,.713.709a2.435,2.435,0,0,1,3.436,0,2.435,2.435,0,0,1,0,3.436A2.447,2.447,0,0,1,2.429,4.858Z" transform="translate(3.762 10.796)" fill="#fff"/>
        <path id="Tracé_180" data-name="Tracé 180" d="M2.429,4.858A2.43,2.43,0,0,1,.713.709a2.435,2.435,0,0,1,3.436,0,2.435,2.435,0,0,1,0,3.436A2.447,2.447,0,0,1,2.429,4.858Z" fill="#fff"/>
      </g>
    </g>
    <g id="_012-cocktails-28-2" data-name="012-cocktails-28" transform="matrix(0.998, -0.07, 0.07, 0.998, 1316, 1762.21)">
      <path id="Tracé_171-2" data-name="Tracé 171" d="M47.281,53.682H41.559c-9.9,0-10.394-9.635-10.417-10.878V12.55C31.142,2.671,37.569,0,37.569,0H14.675S21.1,2.672,21.1,12.55V42.716c0,.737-.219,10.966-10.418,10.966H4.964a4.964,4.964,0,1,0,0,9.927H47.281a4.964,4.964,0,1,0,0-9.927Z" transform="translate(0 95.139)" fill="#b9d8f4"/>
      <path id="Tracé_172-2" data-name="Tracé 172" d="M15,59.4h5.721c10.2,0,10.416-10.229,10.418-10.966V42.811a.062.062,0,0,0,0-.007V18.262c0-9.87,1.285-12.54,1.285-12.54A10.9,10.9,0,0,1,37.57,0H14.675S21.1,2.672,21.1,12.55V42.716c0,.737-.219,10.966-10.418,10.966H4.964a4.964,4.964,0,1,0,0,9.927H10.1A4.978,4.978,0,0,1,15,59.4Z" transform="translate(0 95.139)" fill="#96c8ef"/>
      <path id="Tracé_173-2" data-name="Tracé 173" d="M22.894,0H0S6.427,2.672,6.427,12.55v.079a31.238,31.238,0,0,0,5.02.406,31.269,31.269,0,0,0,5.187-.434c.348-5.281,1.118-6.879,1.118-6.879A10.9,10.9,0,0,1,22.894,0Z" transform="translate(14.675 95.138)" fill="#78b9eb"/>
      <path id="Tracé_174-2" data-name="Tracé 174" d="M38.7,0H4.19A4.19,4.19,0,0,0,0,4.19V77.011a21.446,21.446,0,0,0,42.892,0V4.19A4.189,4.189,0,0,0,38.7,0Z" transform="translate(4.676 0)" fill="#d1e7f8"/>
      <path id="Tracé_175-2" data-name="Tracé 175" d="M18.785,77.011V4.19A4.19,4.19,0,0,1,22.975,0H4.19A4.19,4.19,0,0,0,0,4.19V77.011A21.438,21.438,0,0,0,30.839,96.286,21.469,21.469,0,0,1,18.785,77.011Z" transform="translate(4.676 0)" fill="#b9d8f4"/>
      <path id="Tracé_176-2" data-name="Tracé 176" d="M23.592,0H3.106A3.106,3.106,0,0,0,0,3.106V59.361a13.349,13.349,0,1,0,26.7,0V3.106A3.1,3.1,0,0,0,23.592,0Z" transform="translate(12.773 17.651)" fill="#fff5cc"/>
      <path id="Tracé_177-2" data-name="Tracé 177" d="M10.688,59.361V0H3.106A3.106,3.106,0,0,0,0,3.106V59.361a13.339,13.339,0,0,0,15.255,13.21A21.331,21.331,0,0,1,10.688,59.361Z" transform="translate(12.773 17.651)" fill="#ffeb99"/>
      <g id="Groupe_16-2" data-name="Groupe 16" transform="translate(26.085 23.588)">
        <path id="Tracé_178-2" data-name="Tracé 178" d="M2.429,4.858A2.43,2.43,0,0,1,.713.709a2.435,2.435,0,0,1,3.436,0,2.431,2.431,0,0,1-1.72,4.149Z" transform="translate(0 23.211)" fill="#fff"/>
        <path id="Tracé_179-2" data-name="Tracé 179" d="M2.429,4.858A2.43,2.43,0,0,1,.713.709a2.435,2.435,0,0,1,3.436,0,2.435,2.435,0,0,1,0,3.436A2.447,2.447,0,0,1,2.429,4.858Z" transform="translate(3.762 10.796)" fill="#fff"/>
        <path id="Tracé_180-2" data-name="Tracé 180" d="M2.429,4.858A2.43,2.43,0,0,1,.713.709a2.435,2.435,0,0,1,3.436,0,2.435,2.435,0,0,1,0,3.436A2.447,2.447,0,0,1,2.429,4.858Z" transform="translate(0 0)" fill="#fff"/>
      </g>
    </g>
  </g>
</svg>
