<svg xmlns="http://www.w3.org/2000/svg" width="326.549" height="161.812" viewBox="0 0 326.549 161.812">
  <g id="Groupe_15" data-name="Groupe 15" transform="translate(-715.308 -1691.138)">
    <g id="_040-cocktails" data-name="040-cocktails" transform="translate(936.498 1691.138)">
      <path id="Tracé_53" data-name="Tracé 53" d="M224.7,346.257h-3.188c-12.017,0-12.584-11.132-12.61-12.3V286.684a3.425,3.425,0,0,0-3.415-3.415h-2.047a3.425,3.425,0,0,0-3.415,3.415v47.181s-.128,12.391-12.612,12.391h-3.186a3.588,3.588,0,0,0-3.578,3.578v2.145a3.588,3.588,0,0,0,3.578,3.578H224.7a3.588,3.588,0,0,0,3.578-3.578v-2.145A3.589,3.589,0,0,0,224.7,346.257Z" transform="translate(-151.782 -193.745)" fill="#b9d8f4"/>
      <path id="Tracé_54" data-name="Tracé 54" d="M205.486,283.268h-2.047a3.425,3.425,0,0,0-3.415,3.415v47.181s-.128,12.391-12.612,12.391h-3.186a3.588,3.588,0,0,0-3.578,3.578v2.145a3.588,3.588,0,0,0,3.578,3.578h.945v-.844a3.588,3.588,0,0,1,3.578-3.578h3.186c12.484,0,12.612-12.391,12.612-12.391v-39a16.042,16.042,0,0,0,4.355-.631V286.683A3.426,3.426,0,0,0,205.486,283.268Z" transform="translate(-151.782 -193.744)" fill="#96c8ef"/>
      <path id="Tracé_55" data-name="Tracé 55" d="M193.965,61.443a6.341,6.341,0,0,0-5.635-3.432H95.653a6.341,6.341,0,0,0-5.169,10.014l46.339,65.223a6.341,6.341,0,0,0,10.338,0L193.5,68.025A6.341,6.341,0,0,0,193.965,61.443Z" transform="translate(-89.311 -39.677)" fill="#d1e7f8"/>
      <path id="Tracé_56" data-name="Tracé 56" d="M107.856,58.011h-12.2a6.341,6.341,0,0,0-5.169,10.014l46.339,65.223a6.341,6.341,0,0,0,10.338,0l6.292-8.857-44.43-62.537A6.335,6.335,0,0,1,107.856,58.011Z" transform="translate(-89.31 -39.677)" fill="#c2dff6"/>
      <path id="Tracé_57" data-name="Tracé 57" d="M210.3,86.675a3.53,3.53,0,0,0-3.137-1.911H136.6a3.53,3.53,0,0,0-2.878,5.575L169,140a3.531,3.531,0,0,0,5.756,0l35.28-49.658A3.529,3.529,0,0,0,210.3,86.675Z" transform="translate(-119.241 -57.975)" fill="#fff"/>
      <g id="Groupe_5" data-name="Groupe 5" transform="translate(13.83 26.789)">
        <path id="Tracé_58" data-name="Tracé 58" d="M142.23,84.764H136.6a3.53,3.53,0,0,0-2.878,5.575L169.005,140a3.531,3.531,0,0,0,5.756,0l3.355-4.723Z" transform="translate(-133.072 -84.764)" fill="#ddfffb"/>
        <path id="Tracé_59" data-name="Tracé 59" d="M206.545,112.8h-6.939a2.439,2.439,0,1,1,0-4.879h6.939a2.439,2.439,0,1,1,0,4.879Z" transform="translate(-176.911 -100.6)" fill="#ddfffb"/>
        <path id="Tracé_60" data-name="Tracé 60" d="M245.595,112.8h-1.734a2.439,2.439,0,1,1,0-4.879h1.734a2.439,2.439,0,0,1,0,4.879Z" transform="translate(-207.179 -100.6)" fill="#ddfffb"/>
      </g>
      <path id="Tracé_61" data-name="Tracé 61" d="M280.09,1.338a7.3,7.3,0,0,0-10.174,10.169L230.506,67.05a2.439,2.439,0,1,0,3.979,2.823L273.9,14.325A7.3,7.3,0,0,0,280.09,1.338ZM277.857,8.7a2.429,2.429,0,0,1-1.983,1.025A2.423,2.423,0,0,1,273.9,5.9a2.429,2.429,0,0,1,1.983-1.025,2.423,2.423,0,0,1,1.974,3.82Z" transform="translate(-185.575)" fill="#3e3d42"/>
      <path id="Tracé_62" data-name="Tracé 62" d="M265.072,58.011l-34.566,48.716a2.439,2.439,0,1,0,3.979,2.823l36.57-51.54h-5.982Z" transform="translate(-185.575 -39.677)" fill="#1d1d1f"/>
      <circle id="Ellipse_21" data-name="Ellipse 21" cx="8.939" cy="8.939" r="8.939" transform="translate(47.693 45.775)" fill="#5eac24"/>
      <path id="Tracé_63" data-name="Tracé 63" d="M258.16,148.259a8.976,8.976,0,0,0-1.41-.813,8.938,8.938,0,0,1-10.908,13.465,8.939,8.939,0,1,0,12.318-12.652Z" transform="translate(-196.372 -100.847)" fill="#4e901e"/>
      <circle id="Ellipse_22" data-name="Ellipse 22" cx="3.306" cy="3.306" r="3.306" transform="translate(52.005 50.474)" fill="#ff3f62"/>
      <path id="Tracé_64" data-name="Tracé 64" d="M256.361,163.151A3.306,3.306,0,0,1,260.313,162a3.308,3.308,0,1,0-4.395,4.074A3.3,3.3,0,0,1,256.361,163.151Z" transform="translate(-201.859 -109.235)" fill="#d80027"/>
      <circle id="Ellipse_23" data-name="Ellipse 23" cx="8.939" cy="8.939" r="8.939" transform="translate(57.204 32.309)" fill="#6dc82a"/>
      <path id="Tracé_65" data-name="Tracé 65" d="M288.256,105.649a8.974,8.974,0,0,0-1.41-.813A8.938,8.938,0,0,1,275.938,118.3a8.939,8.939,0,1,0,12.318-12.652Z" transform="translate(-216.957 -71.704)" fill="#5eac24"/>
      <circle id="Ellipse_24" data-name="Ellipse 24" cx="3.306" cy="3.306" r="3.306" transform="translate(61.515 37.008)" fill="#ff3f62"/>
      <path id="Tracé_66" data-name="Tracé 66" d="M286.456,120.542a3.306,3.306,0,0,1,3.952-1.151,3.308,3.308,0,1,0-4.395,4.074A3.3,3.3,0,0,1,286.456,120.542Z" transform="translate(-222.442 -80.092)" fill="#d80027"/>
    </g>
    <g id="_034-cocktails-6" data-name="034-cocktails-6" transform="translate(715.308 1725.186)">
      <path id="Tracé_96" data-name="Tracé 96" d="M23.2,11.821A31.2,31.2,0,0,1,66.984,6.71a4.487,4.487,0,0,1,.736,6.3L34.62,54.868a4.487,4.487,0,0,1-6.3.736A31.207,31.207,0,0,1,23.2,11.821Z" transform="translate(-16.495 0)" fill="#ffd422"/>
      <path id="Tracé_97" data-name="Tracé 97" d="M42.5,30.93A26.364,26.364,0,0,1,82.476,29.35l-32.3,40.844A26.367,26.367,0,0,1,42.5,30.93Z" transform="translate(-31.75 -15.706)" fill="#ffeb99"/>
      <path id="Tracé_98" data-name="Tracé 98" d="M55.611,25.567,66.5,53.246,37.047,49.041A26.344,26.344,0,0,1,55.611,25.567Z" transform="translate(-31.919 -19.187)" fill="#ffde55"/>
      <path id="Tracé_99" data-name="Tracé 99" d="M217.682,111.838a4.8,4.8,0,0,0-3.562-1.581H131.757a4.8,4.8,0,0,0-4.778,5.283l9.125,90.646a4.8,4.8,0,0,0,4.778,4.322H205a4.8,4.8,0,0,0,4.778-4.322L218.9,115.54A4.807,4.807,0,0,0,217.682,111.838Z" transform="translate(-99.391 -82.744)" fill="#d1e7f8"/>
      <path id="Tracé_100" data-name="Tracé 100" d="M155.772,206.187l-9.125-90.646a4.8,4.8,0,0,1,4.778-5.283H131.756a4.8,4.8,0,0,0-4.778,5.283l9.125,90.646a4.8,4.8,0,0,0,4.778,4.322h19.669A4.8,4.8,0,0,1,155.772,206.187Z" transform="translate(-99.39 -82.744)" fill="#b9d8f4"/>
      <path id="Tracé_101" data-name="Tracé 101" d="M172.549,200.578a25.25,25.25,0,0,0,35.6,2.174,3.631,3.631,0,0,0,.313-5.125l-28.615-32.341a3.63,3.63,0,0,0-5.125-.313A25.253,25.253,0,0,0,172.549,200.578Z" transform="translate(-128.864 -123.121)" fill="#ffd422"/>
      <path id="Tracé_102" data-name="Tracé 102" d="M187.953,202.214a21.335,21.335,0,0,0,32.368-.509L192.4,170.147a21.336,21.336,0,0,0-4.445,32.067Z" transform="translate(-141.151 -127.689)" fill="#ffeb99"/>
      <path id="Tracé_103" data-name="Tracé 103" d="M199.264,256.253l7.561-22.851-23.609,4.714a21.318,21.318,0,0,0,16.048,18.138Z" transform="translate(-141.613 -175.159)" fill="#ffde55"/>
      <path id="Tracé_104" data-name="Tracé 104" d="M243.293,292.658a3.634,3.634,0,0,0-2.7-1.2H181.117a3.635,3.635,0,0,0-3.616,4l3.984,39.581a3.634,3.634,0,0,0,3.616,3.271h51.513a3.634,3.634,0,0,0,3.616-3.271l3.984-39.581A3.633,3.633,0,0,0,243.293,292.658Z" transform="translate(-137.309 -218.73)" fill="#ff5023"/>
      <path id="Tracé_105" data-name="Tracé 105" d="M199.815,335.04l-3.984-39.581a3.635,3.635,0,0,1,3.616-4h-18.33a3.635,3.635,0,0,0-3.616,4l3.984,39.581a3.634,3.634,0,0,0,3.616,3.27h18.33A3.635,3.635,0,0,1,199.815,335.04Z" transform="translate(-137.31 -218.73)" fill="#ff3501"/>
      <path id="Tracé_106" data-name="Tracé 106" d="M242,252.785l-13.6-13.6a4.969,4.969,0,0,1,0-7.006l13.6-13.6a4.969,4.969,0,0,1,7.006,0l13.6,13.6a4.969,4.969,0,0,1,0,7.006l-13.6,13.6A4.969,4.969,0,0,1,242,252.785Z" transform="translate(-174.438 -162.951)" fill="#ddfffb"/>
      <path id="Tracé_107" data-name="Tracé 107" d="M263.113,292.041a3.631,3.631,0,0,0-1.961-.58H225.178a3.875,3.875,0,0,0,1.134,2.749l15.108,15.108a3.9,3.9,0,0,0,5.5,0l15.108-15.108A3.855,3.855,0,0,0,263.113,292.041Z" transform="translate(-173.103 -218.73)" fill="#ff9478"/>
      <path id="Tracé_108" data-name="Tracé 108" d="M303.074,252.785l-13.6-13.6a4.969,4.969,0,0,1,0-7.006l13.6-13.6a4.969,4.969,0,0,1,7.006,0l13.6,13.6a4.969,4.969,0,0,1,0,7.006l-13.6,13.6A4.969,4.969,0,0,1,303.074,252.785Z" transform="translate(-220.271 -162.951)" fill="#fff"/>
      <path id="Tracé_109" data-name="Tracé 109" d="M324.187,292.041a3.631,3.631,0,0,0-1.961-.58H286.252a3.874,3.874,0,0,0,1.134,2.749l15.108,15.108a3.9,3.9,0,0,0,5.5,0L323.1,294.21A3.855,3.855,0,0,0,324.187,292.041Z" transform="translate(-218.937 -218.73)" fill="#ffbcab"/>
      <g id="Groupe_8" data-name="Groupe 8" transform="translate(94.082 93.74)">
        <path id="Tracé_110" data-name="Tracé 110" d="M401.262,380.787a1.977,1.977,0,0,1-1.75-2.142l.124-1.232a1.955,1.955,0,0,1,3.891.392l-.124,1.233A1.7,1.7,0,0,1,401.262,380.787Z" transform="translate(-398.009 -375.653)" fill="#ff3501"/>
        <path id="Tracé_111" data-name="Tracé 111" d="M395.477,416c-.065,0-.132,0-.2-.01a1.955,1.955,0,0,1-1.75-2.142l.935-9.286a1.956,1.956,0,0,1,3.891.392l-.935,9.286A1.956,1.956,0,0,1,395.477,416Z" transform="translate(-393.519 -396.031)" fill="#ff3501"/>
      </g>
    </g>
    <g id="_014-cocktails-26" data-name="014-cocktails-26" transform="translate(872.521 1691.139)">
      <circle id="Ellipse_28" data-name="Ellipse 28" cx="26.323" cy="26.323" r="26.323" transform="translate(0.001 20.685)" fill="#5eac24"/>
      <path id="Tracé_130" data-name="Tracé 130" d="M101.912,91.774A26.329,26.329,0,0,1,121.983,66.2a26.323,26.323,0,1,0,0,51.14A26.33,26.33,0,0,1,101.912,91.774Z" transform="translate(-89.408 -44.766)" fill="#4e901e"/>
      <path id="Tracé_131" data-name="Tracé 131" d="M126.791,123.861a21.37,21.37,0,1,1,21.026-21.708A21.394,21.394,0,0,1,126.791,123.861Z" transform="translate(-100.128 -55.486)" fill="#ffe477"/>
      <g id="Groupe_11" data-name="Groupe 11" transform="translate(4.953 25.638)">
        <path id="Tracé_132" data-name="Tracé 132" d="M154.324,102.493l7.861-19.868a21.331,21.331,0,0,0-16.351.26Z" transform="translate(-132.954 -81.123)" fill="#ffda44"/>
        <path id="Tracé_133" data-name="Tracé 133" d="M156.026,170.109a21.25,21.25,0,0,0,8.15-1.759l-8.49-19.607-7.861,19.868A21.24,21.24,0,0,0,156.026,170.109Z" transform="translate(-134.315 -127.372)" fill="#ffda44"/>
        <path id="Tracé_134" data-name="Tracé 134" d="M126.45,131.729l-19.868-7.861a21.331,21.331,0,0,0,.26,16.351Z" transform="translate(-105.08 -110.359)" fill="#ffda44"/>
        <path id="Tracé_135" data-name="Tracé 135" d="M194.065,130.027a21.25,21.25,0,0,0-1.759-8.15l-19.607,8.49,19.868,7.861A21.253,21.253,0,0,0,194.065,130.027Z" transform="translate(-151.328 -108.997)" fill="#ffda44"/>
      </g>
      <path id="Tracé_136" data-name="Tracé 136" d="M280.719,54.487a2.524,2.524,0,0,0-3.207-1.443c-.45.163-11.081,4.116-15.61,14.18-2.775,6.168-2.641,13.184.4,20.857a2.524,2.524,0,0,0,3.207,1.443c.45-.163,11.082-4.116,15.61-14.18C283.892,69.176,283.759,62.159,280.719,54.487Z" transform="translate(-206.029 -36.176)" fill="#4e901e"/>
      <path id="Tracé_137" data-name="Tracé 137" d="M277.516,53.042c-.45.163-11.082,4.116-15.61,14.18-2.775,6.168-2.641,13.184.4,20.857a2.517,2.517,0,0,0,1.344,1.387L279.377,53.1A2.511,2.511,0,0,0,277.516,53.042Z" transform="translate(-206.032 -36.176)" fill="#47821c"/>
      <path id="Tracé_138" data-name="Tracé 138" d="M246.744,44.051a2.524,2.524,0,0,0-3.514.129c-.331.346-8.106,8.6-7.7,19.632.248,6.758,3.48,12.988,9.606,18.517a2.523,2.523,0,0,0,3.514-.129c.331-.346,8.106-8.6,7.7-19.632C256.1,55.81,252.871,49.58,246.744,44.051Z" transform="translate(-189.338 -29.685)" fill="#5eac24"/>
      <path id="Tracé_139" data-name="Tracé 139" d="M243.229,44.19c-.331.346-8.106,8.6-7.7,19.632.248,6.758,3.48,12.988,9.606,18.517a2.518,2.518,0,0,0,1.82.647l-2.03-39.568A2.509,2.509,0,0,0,243.229,44.19Z" transform="translate(-189.337 -29.696)" fill="#4e901e"/>
      <path id="Tracé_140" data-name="Tracé 140" d="M235.05,134.241a6,6,0,0,0-4.438-1.964H156.665a6,6,0,0,0-5.968,6.57L161.09,246.863a6,6,0,0,0,5.968,5.421h53.161a6,6,0,0,0,5.968-5.421L236.58,138.847A6,6,0,0,0,235.05,134.241Z" transform="translate(-131.309 -90.473)" fill="#d1e7f8"/>
      <path id="Tracé_141" data-name="Tracé 141" d="M187.4,246.863,177,138.847a6,6,0,0,1,5.968-6.57H156.664a6,6,0,0,0-5.968,6.57l10.393,108.016a6,6,0,0,0,5.968,5.421h26.308A6,6,0,0,1,187.4,246.863Z" transform="translate(-131.308 -90.473)" fill="#b9d8f4"/>
      <path id="Tracé_142" data-name="Tracé 142" d="M257.55,441.11a4.149,4.149,0,0,0-3.071-1.359H215.012a4.149,4.149,0,0,0-4.13,4.546l.445,4.628a4.149,4.149,0,0,0,4.13,3.752h38.577a4.149,4.149,0,0,0,4.13-3.752l.445-4.628A4.149,4.149,0,0,0,257.55,441.11Z" transform="translate(-172.478 -300.773)" fill="#fff"/>
      <path id="Tracé_143" data-name="Tracé 143" d="M215.012,439.752a4.149,4.149,0,0,0-4.13,4.546l.445,4.628a4.149,4.149,0,0,0,4.13,3.752h12.679l-1.244-12.926Z" transform="translate(-172.478 -300.774)" fill="#d1e7f8"/>
      <path id="Tracé_144" data-name="Tracé 144" d="M329.455,80.866h0a5.41,5.41,0,0,1-4.472-6.179L336.229,4.541A5.41,5.41,0,0,1,342.408.069h0a5.41,5.41,0,0,1,4.472,6.179L335.634,76.395A5.41,5.41,0,0,1,329.455,80.866Z" transform="translate(-250.486 -0.001)" fill="#3e3d42"/>
      <path id="Tracé_145" data-name="Tracé 145" d="M330.254,132.276l-5.272,32.882a5.394,5.394,0,0,0,10.651,1.708l5.545-34.589H330.254Z" transform="translate(-250.486 -90.472)" fill="#1d1d1f"/>
      <path id="Tracé_146" data-name="Tracé 146" d="M247.482,170.04a4.3,4.3,0,0,0-3.184-1.409H187.565a4.3,4.3,0,0,0-4.281,4.713l6.463,67.172a4.3,4.3,0,0,0,4.281,3.889h43.807a4.3,4.3,0,0,0,4.281-3.889l6.463-67.172A4.3,4.3,0,0,0,247.482,170.04Z" transform="translate(-153.602 -115.337)" fill="#ab2300"/>
      <g id="Groupe_12" data-name="Groupe 12" transform="translate(29.662 53.294)">
        <path id="Tracé_147" data-name="Tracé 147" d="M187.565,168.632a4.3,4.3,0,0,0-4.281,4.713l6.463,67.172a4.3,4.3,0,0,0,4.281,3.889h13.034l-7.29-75.775Z" transform="translate(-183.264 -168.632)" fill="#891c00"/>
        <path id="Tracé_148" data-name="Tracé 148" d="M337.719,365.549a2.475,2.475,0,1,1,1.753-.727A2.492,2.492,0,0,1,337.719,365.549Z" transform="translate(-287.211 -299.928)" fill="#891c00"/>
        <path id="Tracé_149" data-name="Tracé 149" d="M260.158,242.645a2.475,2.475,0,1,1,1.753-.727A2.492,2.492,0,0,1,260.158,242.645Z" transform="translate(-234.162 -215.866)" fill="#891c00"/>
        <path id="Tracé_150" data-name="Tracé 150" d="M354.413,218.569a2.475,2.475,0,1,1,1.753-.727A2.492,2.492,0,0,1,354.413,218.569Z" transform="translate(-298.629 -199.399)" fill="#891c00"/>
      </g>
      <path id="Tracé_151" data-name="Tracé 151" d="M264.74,308.5l-6.922-6.922a6.293,6.293,0,0,1,0-8.873l6.922-6.922a6.293,6.293,0,0,1,8.873,0l6.922,6.922a6.293,6.293,0,0,1,0,8.873l-6.922,6.922A6.293,6.293,0,0,1,264.74,308.5Z" transform="translate(-203.343 -194.217)" fill="#ff9478"/>
      <path id="Tracé_152" data-name="Tracé 152" d="M277.256,263.226l-6.922-6.922a6.293,6.293,0,0,1,0-8.873l6.922-6.922a6.293,6.293,0,0,1,8.873,0l6.922,6.922a6.293,6.293,0,0,1,0,8.873l-6.922,6.922A6.293,6.293,0,0,1,277.256,263.226Z" transform="translate(-211.903 -163.248)" fill="#ffbcab"/>
      <path id="Tracé_153" data-name="Tracé 153" d="M267.5,165.368l-6.922-6.922a6.293,6.293,0,0,1,0-8.873l6.922-6.922a6.293,6.293,0,0,1,8.873,0l6.922,6.922a6.293,6.293,0,0,1,0,8.873l-6.922,6.922A6.293,6.293,0,0,1,267.5,165.368Z" transform="translate(-205.232 -96.317)" fill="#ddfffb"/>
      <path id="Tracé_154" data-name="Tracé 154" d="M260.584,177.468l6.922,6.922a6.293,6.293,0,0,0,8.873,0l6.922-6.922a6.292,6.292,0,0,0,.034-8.835H260.549A6.291,6.291,0,0,0,260.584,177.468Z" transform="translate(-205.235 -115.339)" fill="#ff9478"/>
      <path id="Tracé_155" data-name="Tracé 155" d="M215.258,165.368l-6.922-6.922a6.293,6.293,0,0,1,0-8.873l6.922-6.922a6.293,6.293,0,0,1,8.873,0l6.922,6.922a6.293,6.293,0,0,1,0,8.873l-6.922,6.922A6.293,6.293,0,0,1,215.258,165.368Z" transform="translate(-169.499 -96.317)" fill="#fff"/>
      <path id="Tracé_156" data-name="Tracé 156" d="M208.339,177.468l6.922,6.922a6.293,6.293,0,0,0,8.873,0l6.922-6.922a6.292,6.292,0,0,0,.034-8.835H208.3A6.29,6.29,0,0,0,208.339,177.468Z" transform="translate(-169.501 -115.339)" fill="#ffbcab"/>
    </g>
    <g id="_011-cocktails-29" data-name="011-cocktails-29" transform="translate(848.181 1691.139)">
      <g id="Groupe_13" data-name="Groupe 13" transform="translate(76.534 33.312)">
        <ellipse id="Ellipse_29" data-name="Ellipse 29" cx="9.087" cy="9.087" rx="9.087" ry="9.087" transform="translate(0 16.522)" fill="#ff0c38"/>
        <ellipse id="Ellipse_30" data-name="Ellipse 30" cx="9.087" cy="9.087" rx="9.087" ry="9.087" transform="translate(14.153)" fill="#ff0c38"/>
      </g>
      <ellipse id="Ellipse_31" data-name="Ellipse 31" cx="9.087" cy="9.087" rx="9.087" ry="9.087" transform="translate(65.738 39.042)" fill="#c70024"/>
      <ellipse id="Ellipse_32" data-name="Ellipse 32" cx="9.087" cy="9.087" rx="9.087" ry="9.087" transform="translate(78.883 39.042)" fill="#d80027"/>
      <g id="Groupe_14" data-name="Groupe 14" transform="translate(57.973 10.254)">
        <ellipse id="Ellipse_33" data-name="Ellipse 33" cx="9.087" cy="9.087" rx="9.087" ry="9.087" transform="translate(12.98 17.074)" fill="#ff0c38"/>
        <ellipse id="Ellipse_34" data-name="Ellipse 34" cx="9.087" cy="9.087" rx="9.087" ry="9.087" fill="#ff0c38"/>
      </g>
      <ellipse id="Ellipse_35" data-name="Ellipse 35" cx="9.087" cy="9.087" rx="9.087" ry="9.087" transform="translate(69.796 3.671)" fill="#c70024"/>
      <ellipse id="Ellipse_36" data-name="Ellipse 36" cx="9.087" cy="9.087" rx="9.087" ry="9.087" transform="translate(72.512 14.11)" fill="#d80027"/>
      <ellipse id="Ellipse_37" data-name="Ellipse 37" cx="9.087" cy="9.087" rx="9.087" ry="9.087" transform="translate(84.17 23.197)" fill="#c70024"/>
      <path id="Tracé_157" data-name="Tracé 157" d="M170.913,414.84h-6.744c-8.055,0-8.055-7.925-8.055-7.925v-17.8H142.251v17.8s0,7.925-8.055,7.925h-6.744A6.576,6.576,0,0,0,120.9,421.4h0a6.576,6.576,0,0,0,6.557,6.556h43.462a6.576,6.576,0,0,0,6.557-6.556h0A6.576,6.576,0,0,0,170.913,414.84Z" transform="translate(-109.163 -266.142)" fill="#b9d8f4"/>
      <path id="Tracé_158" data-name="Tracé 158" d="M188.469,403.516a45.27,45.27,0,0,0,13.863,0v-14.4H188.469Z" transform="translate(-155.381 -266.143)" fill="#96c8ef"/>
      <path id="Tracé_159" data-name="Tracé 159" d="M163.147,83.884a4.892,4.892,0,0,0-4.277-2.637H88.713a4.892,4.892,0,0,0-4.277,2.637,5.6,5.6,0,0,0-.006,5.278c.1.176,9.43,17.934,3.233,42.5a42.916,42.916,0,0,0-1.586,11.589c0,22.227,16.918,40.31,37.713,40.31s37.713-18.083,37.713-40.31a42.914,42.914,0,0,0-1.586-11.589c-6.14-24.35,3.148-42.341,3.233-42.5A5.594,5.594,0,0,0,163.147,83.884Z" transform="translate(-83.772 -55.57)" fill="#d1e7f8"/>
      <path id="Tracé_160" data-name="Tracé 160" d="M111.8,143.252a42.914,42.914,0,0,1,1.586-11.589c6.2-24.568-3.138-42.325-3.233-42.5a5.6,5.6,0,0,1,.006-5.278,4.892,4.892,0,0,1,4.277-2.637H88.714a4.891,4.891,0,0,0-4.277,2.637,5.6,5.6,0,0,0-.006,5.278c.1.176,9.43,17.934,3.233,42.5a42.915,42.915,0,0,0-1.586,11.589c0,22.227,16.918,40.31,37.713,40.31a35.389,35.389,0,0,0,12.86-2.415C122.169,175.516,111.8,160.655,111.8,143.252Z" transform="translate(-83.773 -55.57)" fill="#b9d8f4"/>
      <path id="Tracé_161" data-name="Tracé 161" d="M151.656,69.821s-5.175.738-5.841-4.669L139.2,5.873A5.3,5.3,0,0,1,143.872.032h0A5.3,5.3,0,0,1,149.713,4.7l6.613,59.28A5.3,5.3,0,0,1,151.656,69.821Z" transform="translate(-121.663 0)" fill="#3e3d42"/>
      <path id="Tracé_162" data-name="Tracé 162" d="M150.668,120.723c.666,5.406,5.841,4.669,5.841,4.669a5.3,5.3,0,0,0,4.669-5.841l-4.273-38.3h-10.64Z" transform="translate(-126.514 -55.57)" fill="#1d1d1f"/>
      <path id="Tracé_163" data-name="Tracé 163" d="M177.429,163.638a65,65,0,0,1,1.1-35.365,3.669,3.669,0,0,0-.48-3.243,3.487,3.487,0,0,0-2.851-1.5H127.773a3.49,3.49,0,0,0-2.854,1.5,3.669,3.669,0,0,0-.474,3.249,64.592,64.592,0,0,1,1.068,35.357,62.91,62.91,0,0,0-1.2,8.861c0,16.582,12.183,30.072,27.158,30.072s27.158-13.49,27.158-30.072A62.9,62.9,0,0,0,177.429,163.638Z" transform="translate(-111.464 -84.492)" fill="#ffe477"/>
      <path id="Tracé_164" data-name="Tracé 164" d="M124.918,125.031a3.669,3.669,0,0,0-.474,3.249,64.592,64.592,0,0,1,1.068,35.357,62.909,62.909,0,0,0-1.2,8.861c0,16.582,12.183,30.072,27.158,30.072.326,0,.65-.009.974-.021a41.437,41.437,0,0,1-12.955-30.375,42.913,42.913,0,0,1,1.586-11.589,66.57,66.57,0,0,0-1.038-37.053H127.773A3.49,3.49,0,0,0,124.918,125.031Z" transform="translate(-111.464 -84.49)" fill="#ffda44"/>
      <path id="Tracé_165" data-name="Tracé 165" d="M127.4,183.009a66.188,66.188,0,0,1-1.728,21.309,62.91,62.91,0,0,0-1.2,8.861c0,16.582,12.183,30.072,27.158,30.072s27.158-13.49,27.158-30.072a62.931,62.931,0,0,0-1.2-8.862,65.931,65.931,0,0,1-1.7-21.308Z" transform="translate(-111.608 -125.171)" fill="#ffa733"/>
      <path id="Tracé_166" data-name="Tracé 166" d="M125.669,204.319a62.909,62.909,0,0,0-1.2,8.861c0,16.582,12.183,30.072,27.158,30.072.322,0,.642-.009.962-.021a41.437,41.437,0,0,1-12.956-30.376,42.914,42.914,0,0,1,1.586-11.589,68.856,68.856,0,0,0,2.108-18.256H127.4A66.189,66.189,0,0,1,125.669,204.319Z" transform="translate(-111.608 -125.172)" fill="#ff9811"/>
      <path id="Tracé_167" data-name="Tracé 167" d="M125.669,239a62.91,62.91,0,0,0-1.2,8.861c0,16.582,12.183,30.072,27.158,30.072s27.158-13.49,27.158-30.072a62.914,62.914,0,0,0-1.2-8.862c-.443-1.8-.795-3.562-1.074-5.284H126.746C126.466,235.431,126.113,237.193,125.669,239Z" transform="translate(-111.608 -159.849)" fill="#ff5023"/>
      <path id="Tracé_168" data-name="Tracé 168" d="M141.743,233.71h-15c-.281,1.721-.633,3.483-1.078,5.286a62.909,62.909,0,0,0-1.2,8.861c0,16.582,12.183,30.072,27.158,30.072.322,0,.643-.008.962-.021a41.437,41.437,0,0,1-12.956-30.376,42.913,42.913,0,0,1,1.586-11.589Q141.5,234.815,141.743,233.71Z" transform="translate(-111.608 -159.849)" fill="#ff3501"/>
      <path id="Tracé_169" data-name="Tracé 169" d="M125.925,295.931c2.347,13.955,13.425,24.554,26.7,24.554s24.351-10.6,26.7-24.554Z" transform="translate(-112.603 -202.405)" fill="#ff0c38"/>
      <path id="Tracé_170" data-name="Tracé 170" d="M152.623,320.486c.321,0,.64-.012.958-.024a41.108,41.108,0,0,1-12.551-24.53H125.925C128.272,309.887,139.35,320.486,152.623,320.486Z" transform="translate(-112.603 -202.406)" fill="#d80027"/>
    </g>
    <g id="_021-cocktails-19" data-name="021-cocktails-19" transform="translate(776.946 1725.319)">
      <circle id="Ellipse_25" data-name="Ellipse 25" cx="28.994" cy="28.994" r="28.994" transform="translate(0 0)" fill="#ff6243"/>
      <path id="Tracé_112" data-name="Tracé 112" d="M65.153,54.158A28.978,28.978,0,0,1,44.087,5.272a29,29,0,0,0,8.652,56.671c.155,0,.312,0,.467,0a28.8,28.8,0,0,0,20.354-8.826c.086-.089.17-.179.255-.269a29.02,29.02,0,0,1-8.2,1.31C65.465,54.157,65.308,54.158,65.153,54.158Z" transform="translate(-23.751 -3.958)" fill="#ff3501"/>
      <circle id="Ellipse_26" data-name="Ellipse 26" cx="25.078" cy="25.078" r="25.078" transform="translate(3.915 3.915)" fill="#ffdaaa"/>
      <path id="Tracé_113" data-name="Tracé 113" d="M76.663,73.733a21.162,21.162,0,1,1,20.822-21.5A21.186,21.186,0,0,1,76.663,73.733Z" transform="translate(-47.332 -23.582)" fill="#ffb655"/>
      <g id="Groupe_9" data-name="Groupe 9" transform="translate(7.831 7.83)">
        <path id="Tracé_114" data-name="Tracé 114" d="M114.735,52.574,122.52,32.9a21.126,21.126,0,0,0-16.193.258Z" transform="translate(-93.573 -31.412)" fill="#ffa733"/>
        <path id="Tracé_115" data-name="Tracé 115" d="M116.951,137.466a21.045,21.045,0,0,0,8.071-1.742l-8.408-19.417-7.784,19.675A21.045,21.045,0,0,0,116.951,137.466Z" transform="translate(-95.452 -95.145)" fill="#ffa733"/>
        <path id="Tracé_116" data-name="Tracé 116" d="M76.326,92.862,56.651,85.077a21.126,21.126,0,0,0,.258,16.193Z" transform="translate(-55.164 -71.7)" fill="#ffa733"/>
        <path id="Tracé_117" data-name="Tracé 117" d="M161.216,90.647a21.045,21.045,0,0,0-1.742-8.071l-19.417,8.408,19.675,7.784A21.035,21.035,0,0,0,161.216,90.647Z" transform="translate(-118.895 -69.822)" fill="#ffa733"/>
      </g>
      <path id="Tracé_118" data-name="Tracé 118" d="M209.52,112.457a5.8,5.8,0,0,0-4.3-1.91H124.765a5.8,5.8,0,0,0-5.773,6.382l8.9,88.47a5.8,5.8,0,0,0,5.773,5.221h62.66a5.8,5.8,0,0,0,5.773-5.221l8.9-88.47A5.8,5.8,0,0,0,209.52,112.457Z" transform="translate(-95.228 -82.99)" fill="#d1e7f8"/>
      <path id="Tracé_119" data-name="Tracé 119" d="M152.685,205.4l-8.9-88.47a5.8,5.8,0,0,1,5.773-6.382h-24.8a5.8,5.8,0,0,0-5.773,6.382l8.9,88.47a5.8,5.8,0,0,0,5.773,5.221h24.8A5.8,5.8,0,0,1,152.685,205.4Z" transform="translate(-95.228 -82.989)" fill="#b9d8f4"/>
      <path id="Tracé_120" data-name="Tracé 120" d="M388.369,110.543c-.094-.54-2.191-13.3,8.351-20.08a1.957,1.957,0,1,1,2.119,3.292c-8.38,5.394-6.632,16.007-6.613,16.114a1.991,1.991,0,0,1-1.591,2.266A1.713,1.713,0,0,1,388.369,110.543Z" transform="translate(-297.304 -67.678)" fill="#806749"/>
      <path id="Tracé_121" data-name="Tracé 121" d="M230.32,199.793a3.49,3.49,0,0,0-2.589-1.149H162.622a3.49,3.49,0,0,0-3.471,3.854l2.864,27.3c0,.034,1.161,15.254,10.244,24.394,5.779,5.816,13.481,8.765,22.891,8.765,16.535,0,24.752-9.114,28.733-16.76a42.954,42.954,0,0,0,4.558-16.233l2.763-27.48A3.49,3.49,0,0,0,230.32,199.793Z" transform="translate(-125.384 -149.126)" fill="#ffa733"/>
      <g id="Groupe_10" data-name="Groupe 10" transform="translate(33.748 49.517)">
        <path id="Tracé_122" data-name="Tracé 122" d="M181.746,229.8l-2.864-27.3a3.49,3.49,0,0,1,3.471-3.854H162.622a3.49,3.49,0,0,0-3.471,3.854l2.864,27.3c0,.034,1.161,15.254,10.244,24.394,5.779,5.816,13.481,8.765,22.891,8.765a37.477,37.477,0,0,0,9.861-1.244,28.659,28.659,0,0,1-13.022-7.521C182.907,245.05,181.749,229.831,181.746,229.8Z" transform="translate(-159.132 -198.643)" fill="#ff9811"/>
        <path id="Tracé_123" data-name="Tracé 123" d="M399.752,312.248A2,2,0,0,1,398,310.1l.189-1.882a1.958,1.958,0,0,1,3.9.392L401.9,310.5A1.82,1.82,0,0,1,399.752,312.248Z" transform="translate(-338.448 -279.584)" fill="#ff9811"/>
        <path id="Tracé_124" data-name="Tracé 124" d="M356.768,359.3a1.986,1.986,0,0,1,.4-2.739,21.351,21.351,0,0,0,6.122-7.393,30.976,30.976,0,0,0,2.31-5.91,1.958,1.958,0,1,1,3.769,1.06,34.889,34.889,0,0,1-2.605,6.658,25.224,25.224,0,0,1-7.258,8.726A1.979,1.979,0,0,1,356.768,359.3Z" transform="translate(-307.222 -306.139)" fill="#ff9811"/>
      </g>
      <circle id="Ellipse_27" data-name="Ellipse 27" cx="10.266" cy="10.266" r="10.266" transform="translate(81.51 37.756)" fill="#ff0c38"/>
      <path id="Tracé_125" data-name="Tracé 125" d="M371.48,198.644H351.166a10.267,10.267,0,0,0,20.314,0Z" transform="translate(-269.548 -149.126)" fill="#d80027"/>
      <path id="Tracé_126" data-name="Tracé 126" d="M202.39,164.934,191.3,153.848a4.974,4.974,0,0,1,0-7.013l11.086-11.086a4.974,4.974,0,0,1,7.013,0l11.086,11.086a4.974,4.974,0,0,1,0,7.013L209.4,164.934A4.974,4.974,0,0,1,202.39,164.934Z" transform="translate(-148.45 -100.824)" fill="#ddfffb"/>
      <path id="Tracé_127" data-name="Tracé 127" d="M189.857,198.643a4.944,4.944,0,0,0,1.447,3.507l11.086,11.086a4.974,4.974,0,0,0,7.013,0l11.086-11.086a4.944,4.944,0,0,0,1.447-3.507H189.857Z" transform="translate(-148.45 -149.126)" fill="#ffc477"/>
      <path id="Tracé_128" data-name="Tracé 128" d="M266.731,164.934l-11.086-11.086a4.974,4.974,0,0,1,0-7.013l11.086-11.086a4.974,4.974,0,0,1,7.013,0l11.086,11.086a4.974,4.974,0,0,1,0,7.013l-11.086,11.086A4.974,4.974,0,0,1,266.731,164.934Z" transform="translate(-196.752 -100.824)" fill="#fff"/>
      <path id="Tracé_129" data-name="Tracé 129" d="M286.277,198.644H254.2a4.944,4.944,0,0,0,1.447,3.507l11.086,11.086a4.974,4.974,0,0,0,7.013,0l11.086-11.086A4.944,4.944,0,0,0,286.277,198.644Z" transform="translate(-196.753 -149.126)" fill="#ffdaaa"/>
    </g>
  </g>
</svg>
