<svg id="instagram" xmlns="http://www.w3.org/2000/svg" width="22" height="22" viewBox="0 0 22 22">
  <path id="Tracé_37" data-name="Tracé 37" d="M15.915,0H6.072A6.071,6.071,0,0,0,0,6.072v9.856A6.079,6.079,0,0,0,6.072,22h9.856A6.079,6.079,0,0,0,22,15.928V6.072A6.1,6.1,0,0,0,15.915,0Zm4.122,15.915a4.123,4.123,0,0,1-4.122,4.122H6.072A4.123,4.123,0,0,1,1.95,15.915V6.072A4.123,4.123,0,0,1,6.072,1.95h9.856A4.123,4.123,0,0,1,20.05,6.072l-.013,9.843Z" fill="#515465"/>
  <path id="Tracé_38" data-name="Tracé 38" d="M46.656,41a5.663,5.663,0,1,0,5.682,5.656A5.66,5.66,0,0,0,46.656,41Zm0,9.375a3.712,3.712,0,1,1,3.719-3.706A3.726,3.726,0,0,1,46.656,50.375Z" transform="translate(-35.669 -35.669)" fill="#515465"/>
  <path id="Tracé_39" data-name="Tracé 39" d="M120.33,28.3a1.483,1.483,0,0,0-1.014.416,1.4,1.4,0,0,0-.416,1.014,1.483,1.483,0,0,0,.416,1.014,1.459,1.459,0,0,0,1.014.416,1.483,1.483,0,0,0,1.014-.416,1.4,1.4,0,0,0,.416-1.014,1.483,1.483,0,0,0-.416-1.014A1.4,1.4,0,0,0,120.33,28.3Z" transform="translate(-103.44 -24.62)" fill="#515465"/>
</svg>
