<svg xmlns="http://www.w3.org/2000/svg" width="128.325" height="167.577" viewBox="0 0 128.325 167.577">
  <g id="_033-cocktails-7" data-name="033-cocktails-7" transform="translate(-59.963 0)">
    <path id="Tracé_40" data-name="Tracé 40" d="M68.395,8.43a28.861,28.861,0,0,1,40.77,0,4.15,4.15,0,0,1,0,5.869l-34.9,34.9a4.15,4.15,0,0,1-5.869,0A28.862,28.862,0,0,1,68.395,8.43Z" transform="translate(-0.001 0)" fill="#4e901e"/>
    <path id="Tracé_41" data-name="Tracé 41" d="M85.71,6.913A28.665,28.665,0,0,1,95,.7a28.816,28.816,0,0,0-26.6,48.519,4.15,4.15,0,0,0,5.869,0l7.1-7.1A28.878,28.878,0,0,1,85.71,6.913Z" transform="translate(0 -0.015)" fill="#47821c"/>
    <path id="Tracé_42" data-name="Tracé 42" d="M81.293,21.969A24.388,24.388,0,0,1,118.185,24.8L84.128,58.861a24.385,24.385,0,0,1-2.835-36.892Z" transform="translate(-9.548 -9.978)" fill="#ffeb99"/>
    <path id="Tracé_43" data-name="Tracé 43" d="M94.948,16.051l7.023,26.6-26.6-7.031A24.369,24.369,0,0,1,94.948,16.051Z" transform="translate(-10.368 -10.798)" fill="#ffe477"/>
    <path id="Tracé_44" data-name="Tracé 44" d="M261.349,342.526h-6.958c-6.051,0-6.6-6.34-6.646-7.992V299.609c.054-22.287,6.646-25.1,6.646-25.1H234.1s6.647,2.831,6.647,25.37v34.6c-.032,1.57-.534,8.042-6.647,8.042h-6.957a4.857,4.857,0,1,0,0,9.715h34.2a4.858,4.858,0,0,0,0-9.715Z" transform="translate(-109.197 -184.664)" fill="#b9d8f4"/>
    <g id="Groupe_3" data-name="Groupe 3" transform="translate(113.092 89.847)">
      <path id="Tracé_45" data-name="Tracé 45" d="M234.1,482.318h-6.957a4.857,4.857,0,1,0,0,9.715h7.49a4.872,4.872,0,0,1-4.857-4.857C229.779,483.4,234.1,482.318,234.1,482.318Z" transform="translate(-222.289 -414.303)" fill="#96c8ef"/>
      <path id="Tracé_46" data-name="Tracé 46" d="M264.185,287.532a15.708,15.708,0,0,0,8.692,0c1.792-11.312,5.8-13.021,5.8-13.021H258.387S262.393,276.22,264.185,287.532Z" transform="translate(-246.572 -274.511)" fill="#96c8ef"/>
    </g>
    <path id="Tracé_47" data-name="Tracé 47" d="M232.489,68.448a5.828,5.828,0,0,0-5.121-3.045H132.55a5.829,5.829,0,0,0-4.892,9L159.1,122.929c1.058,1.7,9.157,14.034,20.855,14.034s19.8-12.336,20.855-14.034L232.259,74.4A5.828,5.828,0,0,0,232.489,68.448Z" transform="translate(-44.908 -43.997)" fill="#d1e7f8"/>
    <path id="Tracé_48" data-name="Tracé 48" d="M185.928,122.93,154.482,74.4a5.829,5.829,0,0,1,4.892-9H132.55a5.829,5.829,0,0,0-4.892,9L159.1,122.93c1.058,1.7,9.157,14.034,20.855,14.034,5.326,0,9.9-2.559,13.412-5.5A38.682,38.682,0,0,1,185.928,122.93Z" transform="translate(-44.908 -43.998)" fill="#b9d8f4"/>
    <path id="Tracé_49" data-name="Tracé 49" d="M245.105,87.894a4.468,4.468,0,0,0-3.926-2.334H167.238a4.468,4.468,0,0,0-3.75,6.9l25.031,38.628s6.035,10.892,15.69,10.892c8.648,0,14.96-9.722,15.649-10.827l25.072-38.692A4.469,4.469,0,0,0,245.105,87.894Z" transform="translate(-69.158 -57.557)" fill="#ff0c38"/>
    <g id="Groupe_4" data-name="Groupe 4" transform="translate(93.611 28.003)">
      <path id="Tracé_50" data-name="Tracé 50" d="M163.312,87.894a4.469,4.469,0,0,0,.176,4.565l25.031,38.628s6.035,10.892,15.69,10.892a14.229,14.229,0,0,0,7.944-2.693c-1.041-1.34-1.718-2.384-1.976-2.8L178.732,87.961a5.814,5.814,0,0,1-.883-2.4H167.238A4.469,4.469,0,0,0,163.312,87.894Z" transform="translate(-162.77 -85.559)" fill="#d80027"/>
      <path id="Tracé_51" data-name="Tracé 51" d="M346.446,135.078a2.534,2.534,0,0,1-.757-3.545l1.407-2.172a2.563,2.563,0,0,1,4.3,2.788l-1.407,2.172A2.557,2.557,0,0,1,346.446,135.078Z" transform="translate(-285.538 -114.237)" fill="#d80027"/>
      <path id="Tracé_52" data-name="Tracé 52" d="M315.784,166.793a2.607,2.607,0,0,1-.757-3.545l6.343-9.788a2.563,2.563,0,0,1,4.3,2.788l-6.343,9.788A2.631,2.631,0,0,1,315.784,166.793Z" transform="translate(-264.922 -130.449)" fill="#d80027"/>
    </g>
  </g>
</svg>
